<svg xmlns="http://www.w3.org/2000/svg" width="60" height="40" viewBox="0 0 60 40">
  <rect width="60" height="40" fill="#fff"/>
  <rect width="60" height="13.33" fill="#239f40"/>
  <rect y="26.67" width="60" height="13.33" fill="#da0000"/>
  <path d="M30 14.5c-2.5 0-4.5 2-4.5 4.5s2 4.5 4.5 4.5c1.2 0 2.3-.5 3.1-1.3l-1-1c-.5.5-1.2.8-2.1.8-1.6 0-3-1.3-3-3s1.4-3 3-3c.8 0 1.6.3 2.1.8l1-1c-.8-.8-1.9-1.3-3.1-1.3z" fill="#da0000"/>
  <path d="M30 17.2c-.9 0-1.7.7-1.7 1.8s.8 1.8 1.7 1.8c.6 0 1.1-.3 1.4-.7l-1-1-1.2 1.2c-.2-.2-.3-.5-.3-.8 0-.6.5-1.1 1.1-1.1.3 0 .6.1.8.3l1-1c-.3-.4-.8-.7-1.4-.7z" fill="#da0000"/>
</svg>
